<svg width="1920" height="1080" viewBox="0 0 1920 1080" fill="none" xmlns="http://www.w3.org/2000/svg">
  <defs>
    <linearGradient id="paint0_linear" x1="960" y1="0" x2="960" y2="1080" gradientUnits="userSpaceOnUse">
      <stop stop-color="#EFF4FF"/>
      <stop offset="1" stop-color="#DCE8FF"/>
    </linearGradient>
    <radialGradient id="paint1_radial" cx="0" cy="0" r="1" gradientUnits="userSpaceOnUse" gradientTransform="translate(316 188) rotate(45) scale(320 320)">
      <stop stop-color="#C3D8FF" stop-opacity="0.85"/>
      <stop offset="1" stop-color="#C3D8FF" stop-opacity="0"/>
    </radialGradient>
    <radialGradient id="paint2_radial" cx="0" cy="0" r="1" gradientUnits="userSpaceOnUse" gradientTransform="translate(1584 270) rotate(135) scale(360 360)">
      <stop stop-color="#C7DCFF" stop-opacity="0.75"/>
      <stop offset="1" stop-color="#C7DCFF" stop-opacity="0"/>
    </radialGradient>
    <linearGradient id="paint3_linear" x1="144" y1="864" x2="480" y2="1200" gradientUnits="userSpaceOnUse">
      <stop stop-color="#CADBFF" stop-opacity="0.75"/>
      <stop offset="1" stop-color="#CADBFF" stop-opacity="0"/>
    </linearGradient>
    <linearGradient id="paint4_linear" x1="1664" y1="792" x2="1968" y2="1096" gradientUnits="userSpaceOnUse">
      <stop stop-color="#C0D6FF" stop-opacity="0.8"/>
      <stop offset="1" stop-color="#C0D6FF" stop-opacity="0"/>
    </linearGradient>
    <linearGradient id="paint5_linear" x1="960" y1="184" x2="960" y2="776" gradientUnits="userSpaceOnUse">
      <stop stop-color="#FFFFFF" stop-opacity="0.7"/>
      <stop offset="1" stop-color="#FFFFFF" stop-opacity="0.2"/>
    </linearGradient>
  </defs>
  <rect width="1920" height="1080" fill="url(#paint0_linear)"/>
  <circle cx="316" cy="188" r="320" fill="url(#paint1_radial)"/>
  <circle cx="1584" cy="270" r="360" fill="url(#paint2_radial)"/>
  <rect x="112" y="832" width="360" height="360" rx="120" fill="url(#paint3_linear)"/>
  <rect x="1608" y="760" width="312" height="312" rx="120" fill="url(#paint4_linear)"/>
  <g opacity="0.35">
    <rect x="620" y="184" width="680" height="592" rx="120" fill="url(#paint5_linear)"/>
    <rect x="712" y="256" width="496" height="408" rx="96" fill="#E6EFFF"/>
    <path d="M760 408C760 357.399 801.399 316 852 316H1000C1050.6 316 1092 357.399 1092 408C1092 458.601 1050.6 500 1000 500H852C801.399 500 760 458.601 760 408Z" fill="#D0E0FF"/>
    <rect x="848" y="552" width="304" height="48" rx="24" fill="#CEDCFF"/>
  </g>
  <circle cx="1300" cy="804" r="90" fill="#E1ECFF"/>
  <path d="M1260 804C1260 781.909 1277.91 764 1300 764C1322.09 764 1340 781.909 1340 804C1340 826.091 1322.09 844 1300 844C1277.91 844 1260 826.091 1260 804Z" fill="#BFD2FF"/>
  <path d="M468 324H540" stroke="#C1D5FF" stroke-width="16" stroke-linecap="round"/>
  <path d="M480 372H664" stroke="#C1D5FF" stroke-width="16" stroke-linecap="round"/>
  <path d="M1440 200H1552" stroke="#C1D5FF" stroke-width="12" stroke-linecap="round"/>
  <circle cx="420" cy="648" r="48" fill="#C7DAFF" opacity="0.6"/>
  <circle cx="1496" cy="612" r="36" fill="#C7DAFF" opacity="0.5"/>
</svg>
