<svg width="902" height="1249" viewBox="0 0 902 1249" fill="none" xmlns="http://www.w3.org/2000/svg">
<g clip-path="url(#clip0_813_4)">
<path d="M763.838 0H0V1248.75H763.838V0Z" fill="url(#paint0_linear_813_4)"/>
<path opacity="0.035" d="M160 777.88C237.607 715.759 354.018 707.993 423.864 762.35C478.189 808.941 462.668 886.593 369.539 917.654C276.411 948.715 183.282 902.123 160 777.88Z" fill="white"/>
<path d="M901.352 0H0V1248.75H901.352V0Z" fill="url(#paint1_linear_813_4)"/>
<g opacity="0.44">
<path d="M383.919 356H61.0736C51.6441 356 44 363.649 44 373.083V556.342C44 565.777 51.6441 573.425 61.0736 573.425H383.919C393.349 573.425 400.993 565.777 400.993 556.342V373.083C400.993 363.649 393.349 356 383.919 356Z" fill="white" fill-opacity="0.06" stroke="url(#paint2_linear_813_4)" stroke-opacity="0.7" stroke-width="0.773654"/>
<path d="M113.846 374.637H70.3864C66.9575 374.637 64.1779 377.418 64.1779 380.849C64.1779 384.28 66.9575 387.061 70.3864 387.061H113.846C117.275 387.061 120.055 384.28 120.055 380.849C120.055 377.418 117.275 374.637 113.846 374.637Z" fill="white" fill-opacity="0.12"/>
<path opacity="0.18" d="M64.1779 522.175C118.503 467.819 172.828 537.706 227.153 498.88C281.478 460.054 335.803 460.054 382.367 484.902V565.66H64.1779V522.175Z" fill="url(#paint3_linear_813_4)"/>
<path d="M64.1779 522.175C118.503 467.819 172.828 537.706 227.153 498.88C281.478 460.054 335.803 460.054 382.367 484.902" stroke="url(#paint4_linear_813_4)" stroke-width="4.64192" stroke-linecap="round"/>
<path d="M64.1779 452.288H382.367H64.1779ZM64.1779 487.231H382.367H64.1779ZM64.1779 522.175H382.367H64.1779Z" fill="black"/>
<path d="M64.1779 452.288H382.367M64.1779 487.231H382.367M64.1779 522.175H382.367" stroke="white" stroke-opacity="0.06" stroke-width="0.773654"/>
<path d="M109.19 413.462V565.66V413.462ZM154.202 413.462V565.66V413.462ZM199.214 413.462V565.66V413.462ZM244.227 413.462V565.66V413.462ZM289.239 413.462V565.66V413.462ZM334.251 413.462V565.66V413.462Z" fill="black"/>
<path d="M109.19 413.462V565.66M154.202 413.462V565.66M199.214 413.462V565.66M244.227 413.462V565.66M289.239 413.462V565.66M334.251 413.462V565.66" stroke="white" stroke-opacity="0.04" stroke-width="0.773654"/>
</g>
<g opacity="0.64">
<path d="M334.864 892H86.5214C77.9492 892 71 898.953 71 907.53V1062.83C71 1071.41 77.9492 1078.36 86.5214 1078.36H334.864C343.437 1078.36 350.386 1071.41 350.386 1062.83V907.53C350.386 898.953 343.437 892 334.864 892Z" fill="white" fill-opacity="0.06" stroke="url(#paint5_linear_813_4)" stroke-opacity="0.7" stroke-width="0.773654"/>
<path opacity="0.9" d="M106.699 986.735H95.8342C91.5481 986.735 88.0735 990.212 88.0735 994.501V1055.07C88.0735 1059.36 91.5481 1062.83 95.8342 1062.83H106.699C110.985 1062.83 114.46 1059.36 114.46 1055.07V994.501C114.46 990.212 110.985 986.735 106.699 986.735Z" fill="url(#paint6_linear_813_4)"/>
<path opacity="0.82" d="M147.055 969.652H136.19C131.904 969.652 128.429 973.128 128.429 977.417V1055.07C128.429 1059.36 131.904 1062.83 136.19 1062.83H147.055C151.341 1062.83 154.816 1059.36 154.816 1055.07V977.417C154.816 973.128 151.341 969.652 147.055 969.652Z" fill="url(#paint7_linear_813_4)"/>
<path opacity="0.75" d="M187.411 952.568H176.546C172.26 952.568 168.785 956.045 168.785 960.334V1055.07C168.785 1059.36 172.26 1062.83 176.546 1062.83H187.411C191.697 1062.83 195.171 1059.36 195.171 1055.07V960.334C195.171 956.045 191.697 952.568 187.411 952.568Z" fill="url(#paint8_linear_813_4)"/>
<path opacity="0.7" d="M227.766 935.485H216.901C212.615 935.485 209.141 938.961 209.141 943.25V1055.07C209.141 1059.36 212.615 1062.83 216.901 1062.83H227.766C232.053 1062.83 235.527 1059.36 235.527 1055.07V943.25C235.527 938.961 232.053 935.485 227.766 935.485Z" fill="url(#paint9_linear_813_4)"/>
<path d="M81.8649 935.485H86.5214H81.8649ZM81.8649 966.546H86.5214H81.8649ZM81.8649 997.606H86.5214H81.8649ZM81.8649 1028.67H86.5214H81.8649Z" fill="black"/>
<path d="M81.8649 935.485H86.5214M81.8649 966.546H86.5214M81.8649 997.606H86.5214M81.8649 1028.67H86.5214" stroke="white" stroke-opacity="0.12" stroke-width="0.773654"/>
<path d="M313.134 1022.46C335.422 1022.46 353.49 1004.38 353.49 982.076C353.49 959.776 335.422 941.697 313.134 941.697C290.847 941.697 272.779 959.776 272.779 982.076C272.779 1004.38 290.847 1022.46 313.134 1022.46Z" fill="white" fill-opacity="0.045"/>
<path d="M313.134 982.076V941.697C319.054 941.992 324.836 943.587 330.069 946.37C335.303 949.153 339.86 953.055 343.416 957.799C346.972 962.543 349.44 968.013 350.644 973.819C351.849 979.626 351.761 985.626 350.386 991.395L313.134 982.076Z" fill="#22D3EE" fill-opacity="0.9"/>
<path d="M313.134 982.076L350.386 991.394C348.917 996.867 346.313 1001.97 342.743 1006.37C339.174 1010.77 334.719 1014.37 329.668 1016.93C324.617 1019.49 319.083 1020.96 313.427 1021.25C307.771 1021.53 302.118 1020.62 296.837 1018.57L313.134 982.076Z" fill="#1E86FF" fill-opacity="0.82"/>
<path d="M313.134 982.076L296.837 1018.57C288.622 1014.69 281.957 1008.14 277.922 999.997C273.887 991.851 272.717 982.58 274.603 973.686C276.488 964.792 281.318 956.796 288.311 950.99C295.304 945.185 304.05 941.91 313.134 941.697V982.076Z" fill="#A3E3FF" fill-opacity="0.55"/>
<path d="M313.134 1000.71C323.421 1000.71 331.76 992.369 331.76 982.076C331.76 971.784 323.421 963.44 313.134 963.44C302.848 963.44 294.509 971.784 294.509 982.076C294.509 992.369 302.848 1000.71 313.134 1000.71Z" fill="#0C2E7F"/>
</g>
<g opacity="0.61">
<path d="M719.006 504H591.73C579.729 504 570 513.734 570 525.743V794.418C570 806.426 579.729 816.161 591.73 816.161H719.006C731.007 816.161 740.736 806.426 740.736 794.418V525.743C740.736 513.734 731.007 504 719.006 504Z" fill="white" fill-opacity="0.06" stroke="url(#paint10_linear_813_4)" stroke-opacity="0.7" stroke-width="0.773654"/>
<path d="M722.11 519.53H588.626C586.054 519.53 583.969 521.616 583.969 524.189C583.969 526.763 586.054 528.849 588.626 528.849H722.11C724.682 528.849 726.767 526.763 726.767 524.189C726.767 521.616 724.682 519.53 722.11 519.53Z" fill="white" fill-opacity="0.12"/>
<path d="M712.797 542.826H597.939C590.224 542.826 583.969 549.084 583.969 556.803V594.076C583.969 601.795 590.224 608.053 597.939 608.053H712.797C720.512 608.053 726.767 601.795 726.767 594.076V556.803C726.767 549.084 720.512 542.826 712.797 542.826Z" fill="#0B1635" fill-opacity="0.35" stroke="#A3E3FF" stroke-opacity="0.25" stroke-width="0.773654"/>
<path d="M626.653 552.144H597.162C594.162 552.144 591.73 554.578 591.73 557.58C591.73 560.582 594.162 563.015 597.162 563.015H626.653C629.654 563.015 632.086 560.582 632.086 557.58C632.086 554.578 629.654 552.144 626.653 552.144Z" fill="#1E86FF" fill-opacity="0.7"/>
<path d="M659.248 552.144H640.622C637.622 552.144 635.19 554.578 635.19 557.58C635.19 560.582 637.622 563.015 640.622 563.015H659.248C662.248 563.015 664.681 560.582 664.681 557.58C664.681 554.578 662.248 552.144 659.248 552.144Z" fill="#22D3EE" fill-opacity="0.7"/>
<path d="M596.386 589.417C624.325 573.887 647.607 612.713 670.889 598.736C694.172 584.758 700.38 581.652 717.454 587.864" stroke="#4FC3F7" stroke-opacity="0.85" stroke-width="2.32096" stroke-linecap="round"/>
<path d="M715.902 617.372H594.834C588.834 617.372 583.969 622.239 583.969 628.243V651.539C583.969 657.543 588.834 662.41 594.834 662.41H715.902C721.902 662.41 726.767 657.543 726.767 651.539V628.243C726.767 622.239 721.902 617.372 715.902 617.372Z" fill="white" fill-opacity="0.06"/>
<path opacity="0.85" d="M604.147 647.656C608.433 647.656 611.908 644.179 611.908 639.891C611.908 635.602 608.433 632.125 604.147 632.125C599.861 632.125 596.386 635.602 596.386 639.891C596.386 644.179 599.861 647.656 604.147 647.656Z" fill="#22D3EE"/>
<path d="M691.067 629.796H622.773C620.201 629.796 618.116 631.882 618.116 634.456C618.116 637.029 620.201 639.115 622.773 639.115H691.067C693.639 639.115 695.724 637.029 695.724 634.456C695.724 631.882 693.639 629.796 691.067 629.796Z" fill="white" fill-opacity="0.18"/>
<path d="M667.009 643.773H621.997C619.854 643.773 618.116 645.512 618.116 647.656C618.116 649.8 619.854 651.539 621.997 651.539H667.009C669.152 651.539 670.889 649.8 670.889 647.656C670.889 645.512 669.152 643.773 667.009 643.773Z" fill="white" fill-opacity="0.1"/>
<path d="M715.902 668.622H594.834C588.834 668.622 583.969 673.489 583.969 679.493V702.789C583.969 708.793 588.834 713.66 594.834 713.66H715.902C721.902 713.66 726.767 708.793 726.767 702.789V679.493C726.767 673.489 721.902 668.622 715.902 668.622Z" fill="white" fill-opacity="0.06"/>
<path opacity="0.85" d="M604.147 698.906C608.433 698.906 611.908 695.43 611.908 691.141C611.908 686.853 608.433 683.376 604.147 683.376C599.861 683.376 596.386 686.853 596.386 691.141C596.386 695.43 599.861 698.906 604.147 698.906Z" fill="#1E86FF"/>
<path d="M691.067 681.046H622.773C620.201 681.046 618.116 683.132 618.116 685.706C618.116 688.279 620.201 690.365 622.773 690.365H691.067C693.639 690.365 695.724 688.279 695.724 685.706C695.724 683.132 693.639 681.046 691.067 681.046Z" fill="white" fill-opacity="0.18"/>
<path d="M667.009 695.023H621.997C619.854 695.023 618.116 696.762 618.116 698.906C618.116 701.05 619.854 702.789 621.997 702.789H667.009C669.152 702.789 670.889 701.05 670.889 698.906C670.889 696.762 669.152 695.023 667.009 695.023Z" fill="white" fill-opacity="0.1"/>
<path d="M642.951 778.888H594.834C588.834 778.888 583.969 783.755 583.969 789.759C583.969 795.763 588.834 800.631 594.834 800.631H642.951C648.951 800.631 653.816 795.763 653.816 789.759C653.816 783.755 648.951 778.888 642.951 778.888Z" fill="#1E86FF" fill-opacity="0.85"/>
<path d="M715.902 778.888H667.785C661.785 778.888 656.92 783.755 656.92 789.759C656.92 795.763 661.785 800.631 667.785 800.631H715.902C721.902 800.631 726.767 795.763 726.767 789.759C726.767 783.755 721.902 778.888 715.902 778.888Z" fill="#22D3EE" fill-opacity="0.85"/>
</g>
<g opacity="0.95">
<path d="M586.939 923.167C596.368 923.167 604.012 915.518 604.012 906.083C604.012 896.649 596.368 889 586.939 889C577.509 889 569.865 896.649 569.865 906.083C569.865 915.518 577.509 923.167 586.939 923.167Z" fill="#A3E3FF" fill-opacity="0.9"/>
<path d="M588.491 921.613H585.386C576.814 921.613 569.865 928.566 569.865 937.144V954.227C569.865 962.804 576.814 969.757 585.386 969.757H588.491C597.063 969.757 604.012 962.804 604.012 954.227V937.144C604.012 928.566 597.063 921.613 588.491 921.613Z" fill="#1E86FF" fill-opacity="0.9"/>
<path d="M565.208 949.568C568.637 949.568 571.417 946.787 571.417 943.356C571.417 939.925 568.637 937.144 565.208 937.144C561.78 937.144 559 939.925 559 943.356C559 946.787 561.78 949.568 565.208 949.568Z" fill="#22D3EE" fill-opacity="0.95"/>
<path d="M608.669 951.121C612.097 951.121 614.877 948.34 614.877 944.909C614.877 941.478 612.097 938.697 608.669 938.697C605.24 938.697 602.46 941.478 602.46 944.909C602.46 948.34 605.24 951.121 608.669 951.121Z" fill="#22D3EE" fill-opacity="0.95"/>
<path d="M658.337 923.167C666.909 923.167 673.859 916.214 673.859 907.636C673.859 899.059 666.909 892.106 658.337 892.106C649.765 892.106 642.816 899.059 642.816 907.636C642.816 916.214 649.765 923.167 658.337 923.167Z" fill="#A3E3FF" fill-opacity="0.9"/>
<path d="M659.889 924.72H656.785C649.07 924.72 642.816 930.978 642.816 938.697V960.44C642.816 968.159 649.07 974.417 656.785 974.417H659.889C667.604 974.417 673.859 968.159 673.859 960.44V938.697C673.859 930.978 667.604 924.72 659.889 924.72Z" fill="#4FC3F7" fill-opacity="0.95"/>
<path d="M639.711 955.004C642.712 955.004 645.144 952.57 645.144 949.568C645.144 946.566 642.712 944.133 639.711 944.133C636.711 944.133 634.279 946.566 634.279 949.568C634.279 952.57 636.711 955.004 639.711 955.004Z" fill="#22D3EE" fill-opacity="0.95"/>
<path d="M676.963 956.557C679.963 956.557 682.395 954.124 682.395 951.122C682.395 948.12 679.963 945.686 676.963 945.686C673.963 945.686 671.53 948.12 671.53 951.122C671.53 954.124 673.963 956.557 676.963 956.557Z" fill="#22D3EE" fill-opacity="0.95"/>
<path d="M638.935 966.651H606.34C604.197 966.651 602.46 968.39 602.46 970.534C602.46 972.678 604.197 974.417 606.34 974.417H638.935C641.078 974.417 642.816 972.678 642.816 970.534C642.816 968.39 641.078 966.651 638.935 966.651Z" fill="#FFD166" fill-opacity="0.95"/>
<path d="M638.935 957.333H606.34C604.197 957.333 602.46 959.072 602.46 961.216C602.46 963.36 604.197 965.099 606.34 965.099H638.935C641.078 965.099 642.816 963.36 642.816 961.216C642.816 959.072 641.078 957.333 638.935 957.333Z" fill="#FFD166" fill-opacity="0.85"/>
<path d="M638.935 948.015H606.34C604.197 948.015 602.46 949.753 602.46 951.898C602.46 954.042 604.197 955.78 606.34 955.78H638.935C641.078 955.78 642.816 954.042 642.816 951.898C642.816 949.753 641.078 948.015 638.935 948.015Z" fill="#FFD166" fill-opacity="0.75"/>
</g>
<g opacity="0.55">
<path d="M238.292 861.562C240.206 861.562 241.759 860.009 241.759 858.094C241.759 856.178 240.206 854.625 238.292 854.625C236.377 854.625 234.825 856.178 234.825 858.094C234.825 860.009 236.377 861.562 238.292 861.562Z" fill="#A3E3FF"/>
<path d="M443.985 956.374C445.9 956.374 447.452 954.821 447.452 952.906C447.452 950.99 445.9 949.437 443.985 949.437C442.07 949.437 440.518 950.99 440.518 952.906C440.518 954.821 442.07 956.374 443.985 956.374Z" fill="#A3E3FF"/>
<path d="M589.588 819.937C591.503 819.937 593.055 818.384 593.055 816.469C593.055 814.553 591.503 813 589.588 813C587.673 813 586.121 814.553 586.121 816.469C586.121 818.384 587.673 819.937 589.588 819.937Z" fill="#A3E3FF"/>
<path d="M95 1135.59C168.957 1112.47 249.848 1158.72 307.627 1112.47" stroke="#6AD3FF" stroke-opacity="0.5" stroke-width="2.30396" stroke-linecap="round"/>
<path d="M376.961 1158.72C446.296 1124.03 538.743 1193.4 608.077 1158.72" stroke="#22D3EE" stroke-opacity="0.5" stroke-width="2.30396" stroke-linecap="round"/>
<path opacity="0.9" d="M480.964 1054.66L501.764 1024.59L522.564 1040.78L508.697 1043.09L515.631 1054.66H476.341H480.964Z" fill="#22D3EE"/>
<path opacity="0.8" d="M330.738 1228.09L349.227 1202.65L367.717 1216.53L356.161 1218.84L363.094 1228.09H330.738Z" fill="#22D3EE"/>
</g>
</g>
<defs>
<linearGradient id="paint0_linear_813_4" x1="0" y1="0" x2="1111.72" y2="680.02" gradientUnits="userSpaceOnUse">
<stop stop-color="#0B1635"/>
<stop offset="0.55" stop-color="#0E3EA5"/>
<stop offset="1" stop-color="#0A2472"/>
</linearGradient>
<linearGradient id="paint1_linear_813_4" x1="0" y1="0" x2="901.352" y2="0" gradientUnits="userSpaceOnUse">
<stop stop-color="#0B1635" stop-opacity="0.28"/>
<stop offset="0.35" stop-color="#0B1635" stop-opacity="0.14"/>
<stop offset="0.6" stop-color="#0B1635" stop-opacity="0"/>
<stop offset="1" stop-color="#0B1635" stop-opacity="0"/>
</linearGradient>
<linearGradient id="paint2_linear_813_4" x1="44" y1="356" x2="237.185" y2="673.192" gradientUnits="userSpaceOnUse">
<stop stop-color="#A3E3FF" stop-opacity="0.6"/>
<stop offset="1" stop-color="#1E86FF" stop-opacity="0.6"/>
</linearGradient>
<linearGradient id="paint3_linear_813_4" x1="64.1779" y1="467.723" x2="382.367" y2="467.723" gradientUnits="userSpaceOnUse">
<stop stop-color="#22D3EE"/>
<stop offset="0.6" stop-color="#1E86FF"/>
<stop offset="1" stop-color="#A3E3FF"/>
</linearGradient>
<linearGradient id="paint4_linear_813_4" x1="64.1779" y1="467.723" x2="382.367" y2="467.723" gradientUnits="userSpaceOnUse">
<stop stop-color="#22D3EE"/>
<stop offset="0.6" stop-color="#1E86FF"/>
<stop offset="1" stop-color="#A3E3FF"/>
</linearGradient>
<linearGradient id="paint5_linear_813_4" x1="71" y1="892" x2="243.067" y2="1149.95" gradientUnits="userSpaceOnUse">
<stop stop-color="#A3E3FF" stop-opacity="0.6"/>
<stop offset="1" stop-color="#1E86FF" stop-opacity="0.6"/>
</linearGradient>
<linearGradient id="paint6_linear_813_4" x1="88.0735" y1="986.735" x2="114.46" y2="986.735" gradientUnits="userSpaceOnUse">
<stop stop-color="#22D3EE"/>
<stop offset="0.6" stop-color="#1E86FF"/>
<stop offset="1" stop-color="#A3E3FF"/>
</linearGradient>
<linearGradient id="paint7_linear_813_4" x1="128.429" y1="969.652" x2="154.816" y2="969.652" gradientUnits="userSpaceOnUse">
<stop stop-color="#22D3EE"/>
<stop offset="0.6" stop-color="#1E86FF"/>
<stop offset="1" stop-color="#A3E3FF"/>
</linearGradient>
<linearGradient id="paint8_linear_813_4" x1="168.785" y1="952.568" x2="195.171" y2="952.568" gradientUnits="userSpaceOnUse">
<stop stop-color="#22D3EE"/>
<stop offset="0.6" stop-color="#1E86FF"/>
<stop offset="1" stop-color="#A3E3FF"/>
</linearGradient>
<linearGradient id="paint9_linear_813_4" x1="209.141" y1="935.485" x2="235.527" y2="935.485" gradientUnits="userSpaceOnUse">
<stop stop-color="#22D3EE"/>
<stop offset="0.6" stop-color="#1E86FF"/>
<stop offset="1" stop-color="#A3E3FF"/>
</linearGradient>
<linearGradient id="paint10_linear_813_4" x1="570" y1="504" x2="832.842" y2="647.761" gradientUnits="userSpaceOnUse">
<stop stop-color="#A3E3FF" stop-opacity="0.6"/>
<stop offset="1" stop-color="#1E86FF" stop-opacity="0.6"/>
</linearGradient>
<clipPath id="clip0_813_4">
<rect width="902" height="1248.75" fill="white"/>
</clipPath>
</defs>
</svg>
